PathFileType	4	(x/y/z)	S08_P20_T11
DataRate	CameraRate	NumFrames	NumMarkers	Units	OrigDataRate	OrigDataStartFrame	OrigNumFrames
240	240	10	51	mm	240	49	386
Frame#	Time	Sternum			R.Acromium			L.Acromium			Top.Head			R.ASIS			L.ASIS			R.PSIS			L.PSIS			R.Great.Tro			L.Great.Tro			R.Iliac.Crest			L.Iliac.Crest			V.Sacral			R.Thigh.Upper.Post			R.Thigh.Lower.Ant			R.Thigh.Lower.Post			R.Thigh.Upper.Ant			R.Knee.Lat			R.Knee.Med			R.Shank.Upper.Post			R.Shank.Lower.Ant			R.Shank.Lower.Post			R.Shank.Upper.Ant			R.Ankle.Lat			R.Ankle.Med			R.Heel.Upper			R.Heel.Med			R.Heel.Lat			R.Toe.Lat			R.Toe.Med			R.Toe.Tip			L.Thigh.Upper.Post			L.Thigh.Lower.Ant			L.Thigh.Lower.Post			L.Thigh.Upper.Ant			L.Knee.Lat			L.Knee.Med			L.Shank.Upper.Post			L.Shank.Lower.Ant			L.Shank.Lower.Post			L.Shank.Upper.Ant			L.Ankle.Lat			L.Ankle.Med			L.Heel.Upper			L.Heel.Med			L.Heel.Lat			L.Toe.Lat			L.Toe.Med			L.Toe.Tip			Cervical.Spine			Back			
		X1	Y1	Z1	X2	Y2	Z2	X3	Y3	Z3	X4	Y4	Z4	X5	Y5	Z5	X6	Y6	Z6	X7	Y7	Z7	X8	Y8	Z8	X9	Y9	Z9	X10	Y10	Z10	X11	Y11	Z11	X12	Y12	Z12	X13	Y13	Z13	X14	Y14	Z14	X15	Y15	Z15	X16	Y16	Z16	X17	Y17	Z17	X18	Y18	Z18	X19	Y19	Z19	X20	Y20	Z20	X21	Y21	Z21	X22	Y22	Z22	X23	Y23	Z23	X24	Y24	Z24	X25	Y25	Z25	X26	Y26	Z26	X27	Y27	Z27	X28	Y28	Z28	X29	Y29	Z29	X30	Y30	Z30	X31	Y31	Z31	X32	Y32	Z32	X33	Y33	Z33	X34	Y34	Z34	X35	Y35	Z35	X36	Y36	Z36	X37	Y37	Z37	X38	Y38	Z38	X39	Y39	Z39	X40	Y40	Z40	X41	Y41	Z41	X42	Y42	Z42	X43	Y43	Z43	X44	Y44	Z44	X45	Y45	Z45	X46	Y46	Z46	X47	Y47	Z47	X48	Y48	Z48	X49	Y49	Z49	X50	Y50	Z50	X51	Y51	Z51	

49	0.2	-1047.3	1224.5	290.33	-1164.3	1463.5	469.3	-1190.4	1487.1	134.7	-1166.3	1779.1	320.98	-1070.9	1008.4	396.38	-1077.2	1019.6	171.94	NaN	NaN	NaN	NaN	NaN	NaN	-1148.5	888.51	470.21	-1160.1	913.28	103.52	-1177.2	1072.1	452.51	-1175.1	1098.6	145.15	-1298.2	993.29	281.64	-1152	684.58	457.73	-1061	595.18	441.13	-1132.8	595.95	441.64	-1073.3	688.34	454.93	-1093.6	497.61	433.42	-1098.4	498.83	299.6	-1256.5	409	433.6	-1263.8	323.74	414.13	-1316.2	360.08	425.12	-1210.6	374.11	424.1	-1445.2	256.22	395.86	-1408.6	240.1	317.01	-1490.4	285.17	345.15	-1502.1	266.16	314.92	-1510.4	268.57	375.29	-1447.5	97.805	407.11	-1416.8	102.73	294.34	-1373.1	52.14	336.75	-1130.8	696.5	122.56	-1021	631.01	145.21	-1093.3	615.03	142.35	-1056.5	710.09	120.99	-1057.5	521.95	163.63	-1060.7	524.67	288.43	-1111.7	339.92	163.05	-1043.6	255.33	190.21	-1115.8	267.12	179.7	-1046.3	328.91	172.37	-1097.8	97.786	199.42	-1073.9	104.12	286.89	-1147.8	72.773	248.9	-1134.7	39.618	280.16	-1139	47.585	216.49	-963.03	41.528	187.65	-948.37	49.352	300.86	-884.33	68.725	255.3	-1242	1516.4	299.04	-1289.9	1234.7	309.35
50	0.20417	-1042.1	1225	290.42	-1159.2	1464	469.28	-1184.8	1487.6	134.63	-1160.9	1779.6	320.77	-1066.1	1008.7	396.34	-1072.1	1020.2	171.91	NaN	NaN	NaN	NaN	NaN	NaN	-1142.8	888.97	469.86	-1155.3	913.8	103.25	-1172.1	1072.5	452.25	-1170.1	1099.3	144.99	-1293.1	993.76	281.29	-1143.3	685.14	457.4	-1051.2	596.85	441.14	-1123	596.72	441.3	-1064.7	689.84	454.86	-1082.3	499.01	433.42	-1087.2	500.16	299.47	-1245.6	411.28	433.7	-1252.9	325.5	414.03	-1305	362.12	425.03	-1199.4	375.7	423.67	-1434.1	258.67	395.61	-1397.8	242.44	316.84	-1479.4	287.37	344.92	-1491.3	268.26	314.73	-1499.4	270.93	375.07	-1436.3	100.26	407.49	-1405.6	104.79	294.66	-1362.1	53.666	337.4	-1127.6	696.98	122.48	-1018.9	630.46	145.28	-1090.7	615.2	142.25	-1053.2	709.99	120.67	-1055.4	521.93	163.57	-1058.8	524.68	288.42	-1110.5	340.11	163.03	-1042.8	255.18	190.2	-1114.9	267.25	179.71	-1045.1	328.76	172.29	-1097.7	97.884	199.52	-1073.8	104.08	286.86	-1147.8	72.907	249	-1134.7	39.659	280.18	-1138.9	47.651	216.48	-962.97	41.496	187.58	-948.19	49.229	302.95	-884.22	68.433	255.35	-1236.7	1517	298.9	-1284.7	1235.3	309.07
51	0.20833	-1036.8	1225.5	290.52	-1154.1	1464.6	469.28	-1179.3	1488.1	134.57	-1155.5	1780.3	320.58	-1061.4	1009.1	396.42	-1067	1020.7	171.87	NaN	NaN	NaN	NaN	NaN	NaN	-1137.1	889.51	469.53	-1150.5	914.31	102.99	-1167	1072.8	451.98	-1165.1	1100	144.81	-1288	994.26	280.94	-1134.6	685.82	457.05	-1041.4	598.66	441.13	-1113.4	597.62	440.94	-1056.1	691.46	454.78	-1071.1	500.55	433.4	-1076.2	501.62	299.35	-1234.6	413.45	433.76	-1241.9	327.2	413.88	-1293.8	364.02	424.91	-1188.1	377.32	423.25	-1422.9	260.83	395.3	-1386.7	244.56	316.6	-1468.4	289.15	344.62	-1480.4	269.87	314.49	-1488.4	272.79	374.8	-1424.5	102.49	407.89	-1393.9	106.67	294.98	-1350.5	55.227	338.07	-1124.5	697.48	122.42	-1016.9	629.92	145.37	-1088.2	615.39	142.18	-1050	709.88	120.4	-1053.4	521.92	163.52	-1057	524.67	288.43	-1109.3	340.31	163.04	-1042	255.04	190.2	-1114.1	267.38	179.75	-1044	328.63	172.22	-1097.5	97.983	199.62	-1073.7	104.05	286.85	-1147.7	73.037	249.1	-1134.7	39.703	280.19	-1138.9	47.725	216.48	-962.91	41.465	187.53	-948.06	49.067	304.62	-884.12	68.133	255.39	-1231.3	1517.7	298.79	-1279.5	1236	308.79
52	0.2125	-1031.6	1226.1	290.6	-1149	1465.2	469.3	-1173.8	1488.7	134.53	-1150.1	1780.9	320.4	-1056.9	1009.5	396.59	-1061.9	1021.2	171.82	NaN	NaN	NaN	NaN	NaN	NaN	-1131.5	890.12	469.22	-1145.8	914.81	102.76	-1161.9	1073.3	451.7	-1160.1	1100.7	144.61	-1283	994.8	280.57	-1126	686.62	456.68	-1031.7	600.59	441.08	-1103.7	598.66	440.56	-1047.5	693.19	454.68	-1060.1	502.22	433.35	-1065.3	503.19	299.23	-1223.7	415.52	433.77	-1230.8	328.85	413.7	-1282.6	365.77	424.74	-1176.6	378.97	422.85	-1411.5	262.7	394.93	-1375.5	246.45	316.32	-1457.4	290.49	344.28	-1469.3	271	314.19	-1477.2	274.16	374.5	-1412.2	104.48	408.31	-1381.8	108.34	295.31	-1338.2	56.791	338.75	-1121.4	697.99	122.39	-1014.9	629.39	145.47	-1085.8	615.59	142.13	-1046.8	709.77	120.18	-1051.5	521.91	163.49	-1055.1	524.65	288.45	-1108.2	340.52	163.06	-1041.3	254.92	190.2	-1113.4	267.52	179.83	-1042.9	328.51	172.15	-1097.4	98.083	199.72	-1073.7	104.04	286.85	-1147.6	73.163	249.21	-1134.7	39.751	280.21	-1138.9	47.805	216.48	-962.84	41.433	187.48	-947.96	48.867	305.92	-884	67.822	255.44	-1225.9	1518.4	298.71	-1274.4	1236.6	308.52
53	0.21667	-1026.3	1226.6	290.69	-1143.9	1465.7	469.32	-1168.4	1489.3	134.49	-1144.6	1781.5	320.24	-1052.5	1009.9	396.84	-1056.8	1021.7	171.76	NaN	NaN	NaN	NaN	NaN	NaN	-1125.9	890.8	468.93	-1141	915.32	102.55	-1156.9	1073.8	451.41	-1155	1101.4	144.39	-1277.9	995.38	280.2	-1117.4	687.52	456.29	-1022.1	602.64	441.01	-1094.1	599.83	440.18	-1039	695.02	454.57	-1049.1	504.03	433.28	-1054.4	504.88	299.11	-1212.7	417.46	433.74	-1219.6	330.42	413.47	-1271.3	367.35	424.54	-1165	380.63	422.48	-1400	264.27	394.52	-1364.1	248.1	315.99	-1446.3	291.41	343.88	-1458.1	271.67	313.86	-1465.9	275.04	374.16	-1399.5	106.22	408.75	-1369.1	109.79	295.64	-1325.4	58.333	339.44	-1118.4	698.52	122.37	-1012.9	628.88	145.57	-1083.4	615.82	142.09	-1043.7	709.66	120.02	-1049.6	521.91	163.47	-1053.3	524.63	288.47	-1107.2	340.73	163.08	-1040.6	254.81	190.21	-1112.6	267.68	179.94	-1041.8	328.41	172.09	-1097.2	98.182	199.83	-1073.6	104.04	286.88	-1147.5	73.287	249.32	-1134.7	39.805	280.22	-1138.8	47.893	216.48	-962.77	41.398	187.43	-947.91	48.632	306.91	-883.88	67.499	255.48	-1220.6	1519.1	298.64	-1269.2	1237.3	308.26
54	0.22083	-1021.1	1227.2	290.77	-1138.9	1466.3	469.35	-1163	1489.9	134.47	-1139.1	1782.2	320.1	-1048.1	1010.3	397.13	-1051.7	1022.3	171.69	NaN	NaN	NaN	NaN	NaN	NaN	-1120.4	891.55	468.66	-1136.4	915.83	102.36	-1151.8	1074.4	451.12	-1149.8	1102	144.15	-1272.8	995.99	279.83	-1108.9	688.53	455.9	-1012.6	604.79	440.9	-1084.6	601.11	439.8	-1030.6	696.95	454.45	-1038.3	505.95	433.19	-1043.7	506.66	298.98	-1201.6	419.27	433.67	-1208.2	331.91	413.21	-1260	368.76	424.3	-1153.3	382.3	422.12	-1388.2	265.52	394.07	-1352.5	249.49	315.63	-1435.1	291.9	343.45	-1446.8	271.86	313.49	-1454.5	275.43	373.8	-1386.3	107.7	409.21	-1356	111.03	295.97	-1312	59.834	340.13	-1115.3	699.07	122.37	-1010.9	628.4	145.66	-1081	616.07	142.05	-1040.7	709.56	119.91	-1047.9	521.92	163.46	-1051.4	524.6	288.49	-1106.2	340.96	163.11	-1040	254.72	190.22	-1111.9	267.87	180.07	-1040.8	328.32	172.02	-1097.1	98.282	199.93	-1073.5	104.06	286.92	-1147.4	73.412	249.42	-1134.7	39.867	280.23	-1138.8	47.988	216.48	-962.7	41.361	187.4	-947.89	48.363	307.64	-883.75	67.165	255.52	-1215.2	1519.8	298.59	-1264	1238	307.99
55	0.225	-1015.9	1227.8	290.84	-1133.8	1466.9	469.38	-1157.6	1490.6	134.46	-1133.5	1782.9	319.97	-1043.8	1010.8	397.45	-1046.6	1022.8	171.6	NaN	NaN	NaN	NaN	NaN	NaN	-1115	892.35	468.41	-1131.7	916.35	102.18	-1146.8	1075.1	450.83	-1144.6	1102.7	143.88	-1267.7	996.65	279.46	-1100.4	689.62	455.51	-1003.1	607.04	440.77	-1075.1	602.5	439.43	-1022.3	698.95	454.32	-1027.5	507.98	433.07	-1033.1	508.54	298.85	-1190.6	420.95	433.55	-1196.8	333.31	412.93	-1248.7	370	424.02	-1141.6	383.96	421.78	-1376.3	266.44	393.59	-1340.7	250.6	315.24	-1423.8	291.98	342.98	-1435.3	271.6	313.1	-1443.1	275.33	373.43	-1372.6	108.92	409.71	-1342.6	112.04	296.32	-1298.1	61.276	340.84	-1112.3	699.64	122.37	-1008.9	627.96	145.75	-1078.7	616.35	142.02	-1037.7	709.46	119.84	-1046.2	521.93	163.45	-1049.5	524.58	288.5	-1105.2	341.2	163.13	-1039.4	254.65	190.24	-1111.2	268.07	180.22	-1039.8	328.24	171.95	-1096.9	98.384	200.04	-1073.4	104.1	286.98	-1147.3	73.54	249.52	-1134.7	39.936	280.24	-1138.7	48.09	216.49	-962.63	41.32	187.36	-947.9	48.063	308.17	-883.62	66.819	255.56	-1209.9	1520.5	298.55	-1258.8	1238.8	307.72
56	0.22917	-1010.7	1228.5	290.91	-1128.8	1467.6	469.41	-1152.3	1491.2	134.46	-1127.9	1783.6	319.86	-1039.5	1011.3	397.78	-1041.4	1023.3	171.51	NaN	NaN	NaN	NaN	NaN	NaN	-1109.5	893.22	468.18	-1127.1	916.88	102.03	-1141.8	1075.8	450.53	-1139.3	1103.3	143.61	-1262.6	997.34	279.1	-1092	690.79	455.14	-993.69	609.37	440.61	-1065.6	603.99	439.07	-1014	701.03	454.18	-1016.9	510.09	432.93	-1022.6	510.5	298.71	-1179.6	422.49	433.39	-1185.3	334.62	412.64	-1237.3	371.07	423.71	-1129.9	385.6	421.45	-1364.2	267.04	393.1	-1328.8	251.42	314.83	-1412.5	291.63	342.49	-1423.8	270.88	312.7	-1431.5	274.77	373.05	-1358.6	109.87	410.22	-1328.7	112.82	296.69	-1283.7	62.647	341.56	-1109.2	700.22	122.37	-1006.9	627.56	145.84	-1076.3	616.64	141.98	-1034.7	709.37	119.8	-1044.5	521.96	163.45	-1047.6	524.56	288.5	-1104.3	341.45	163.14	-1038.8	254.59	190.25	-1110.6	268.29	180.39	-1038.8	328.17	171.88	-1096.8	98.488	200.15	-1073.3	104.15	287.04	-1147.2	73.674	249.61	-1134.6	40.014	280.25	-1138.7	48.198	216.49	-962.56	41.275	187.34	-947.95	47.734	308.54	-883.47	66.463	255.59	-1204.6	1521.3	298.53	-1253.7	1239.5	307.46
57	0.23333	-1005.4	1229.2	290.97	-1123.8	1468.2	469.44	-1147	1491.9	134.46	-1122.3	1784.3	319.77	-1035.2	1011.9	398.09	-1036.3	1023.8	171.4	NaN	NaN	NaN	NaN	NaN	NaN	-1104.1	894.13	467.98	-1122.5	917.43	101.89	-1136.7	1076.6	450.24	-1134	1104	143.33	-1257.4	998.07	278.75	-1083.6	692.03	454.78	-984.38	611.77	440.41	-1056.3	605.56	438.72	-1005.8	703.17	454.03	-1006.4	512.29	432.78	-1012.2	512.54	298.55	-1168.5	423.89	433.19	-1173.7	335.82	412.33	-1226	371.95	423.37	-1118.1	387.23	421.14	-1352	267.3	392.59	-1316.7	251.96	314.41	-1401	290.86	341.98	-1412	269.72	312.29	-1419.8	273.73	372.67	-1344.2	110.58	410.76	-1314.4	113.37	297.07	-1268.9	63.941	342.3	-1106.1	700.81	122.37	-1004.8	627.19	145.92	-1073.9	616.96	141.93	-1031.7	709.3	119.8	-1042.9	521.99	163.44	-1045.6	524.54	288.49	-1103.4	341.7	163.15	-1038.2	254.55	190.27	-1109.9	268.53	180.57	-1037.9	328.12	171.81	-1096.6	98.595	200.26	-1073.2	104.21	287.12	-1147.1	73.815	249.69	-1134.6	40.101	280.26	-1138.6	48.312	216.5	-962.49	41.228	187.31	-948.02	47.379	308.79	-883.33	66.097	255.62	-1199.3	1522	298.52	-1248.5	1240.3	307.2
58	0.2375	-1000.2	1229.9	291.03	-1118.7	1468.9	469.47	-1141.7	1492.6	134.47	-1116.6	1785.1	319.69	-1030.8	1012.5	398.39	-1031.1	1024.4	171.3	NaN	NaN	NaN	NaN	NaN	NaN	-1098.7	895.09	467.81	-1117.9	917.98	101.77	-1131.7	1077.4	449.95	-1128.6	1104.6	143.04	-1252.3	998.84	278.41	-1075.3	693.33	454.45	-975.15	614.23	440.19	-1047	607.2	438.41	-997.65	705.37	453.87	-996.02	514.55	432.6	-1001.9	514.66	298.38	-1157.5	425.15	432.96	-1162.1	336.92	412.02	-1214.6	372.66	423.02	-1106.4	388.82	420.84	-1339.6	267.23	392.08	-1304.5	252.2	313.99	-1389.5	289.69	341.46	-1400.2	268.13	311.87	-1408	272.24	372.3	-1329.5	111.04	411.33	-1299.8	113.7	297.47	-1253.6	65.151	343.06	-1103.1	701.41	122.36	-1002.6	626.86	146	-1071.5	617.29	141.87	-1028.7	709.25	119.82	-1041.3	522.03	163.44	-1043.6	524.54	288.46	-1102.4	341.96	163.15	-1037.6	254.52	190.28	-1109.3	268.78	180.75	-1037	328.07	171.75	-1096.4	98.705	200.38	-1073.1	104.29	287.2	-1147	73.965	249.77	-1134.6	40.198	280.26	-1138.6	48.432	216.51	-962.42	41.177	187.3	-948.13	47.002	308.95	-883.17	65.723	255.65	-1194	1522.8	298.51	-1243.4	1241	306.93
